<svg width="960" height="640" viewBox="0 0 960 640" fill="none" xmlns="http://www.w3.org/2000/svg">
  <rect width="960" height="640" rx="32" fill="#F4EEDF"/>
  <rect x="32" y="32" width="896" height="576" rx="28" fill="#FCFAF4"/>
  <rect x="72" y="72" width="816" height="496" rx="24" fill="#21543B"/>
  <g opacity="0.96">
    <rect x="96" y="96" width="184" height="144" rx="18" fill="#77A845"/>
    <rect x="292" y="96" width="184" height="144" rx="18" fill="#D84B38"/>
    <rect x="488" y="96" width="184" height="144" rx="18" fill="#7AA73C"/>
    <rect x="684" y="96" width="180" height="144" rx="18" fill="#E7B63D"/>
    <rect x="96" y="252" width="184" height="144" rx="18" fill="#54723A"/>
    <rect x="292" y="252" width="184" height="144" rx="18" fill="#4E8A3D"/>
    <rect x="488" y="252" width="184" height="144" rx="18" fill="#E29A33"/>
    <rect x="684" y="252" width="180" height="144" rx="18" fill="#5C9B42"/>
    <rect x="96" y="408" width="184" height="120" rx="18" fill="#BBD072"/>
    <rect x="292" y="408" width="184" height="120" rx="18" fill="#5E7C3B"/>
    <rect x="488" y="408" width="184" height="120" rx="18" fill="#6E9E45"/>
    <rect x="684" y="408" width="180" height="120" rx="18" fill="#D9A432"/>
  </g>
</svg>
